<svg xmlns="http://www.w3.org/2000/svg" viewBox="0 0 720 440" width="720" height="440" role="img">
<defs><clipPath id="plot"><rect x="56" y="30" width="648" height="364.0"/></clipPath></defs>
<text x="48" y="314.0" text-anchor="end" font-family="system-ui, -apple-system, 'Segoe UI', sans-serif" font-size="12" fill="#898781">0</text>
<line x1="56" y1="170.0" x2="704" y2="170.0" stroke="#2c2c2a" stroke-width="1"/>
<text x="48" y="174.0" text-anchor="end" font-family="system-ui, -apple-system, 'Segoe UI', sans-serif" font-size="12" fill="#898781">20</text>
<line x1="56" y1="30.0" x2="704" y2="30.0" stroke="#2c2c2a" stroke-width="1"/>
<text x="48" y="34.0" text-anchor="end" font-family="system-ui, -apple-system, 'Segoe UI', sans-serif" font-size="12" fill="#898781">40</text>
<line x1="56" y1="310.0" x2="704" y2="310.0" stroke="#383835" stroke-width="1"/>
<line x1="380.0" y1="30" x2="380.0" y2="394.0" stroke="#898781" stroke-width="1" stroke-dasharray="2 3"/>
<path d="M 56.0 366.3 L 62.5 363.7 L 69.0 361.3 L 75.4 359.0 L 81.9 356.8 L 88.4 354.7 L 94.9 352.6 L 101.4 350.7 L 107.8 348.9 L 114.3 347.1 L 120.8 345.4 L 127.3 343.8 L 133.8 342.2 L 140.2 340.8 L 146.7 339.4 L 153.2 338.0 L 159.7 336.7 L 166.2 335.5 L 172.6 334.3 L 179.1 333.2 L 185.6 332.1 L 192.1 331.0 L 198.6 330.0 L 205.0 329.1 L 211.5 328.1 L 218.0 327.3 L 224.5 326.4 L 231.0 325.6 L 237.4 324.8 L 243.9 324.0 L 250.4 323.3 L 256.9 322.5 L 263.4 321.8 L 269.8 321.1 L 276.3 320.5 L 282.8 319.8 L 289.3 319.2 L 295.8 318.5 L 302.2 317.9 L 308.7 317.3 L 315.2 316.7 L 321.7 316.1 L 328.2 315.4 L 334.6 314.8 L 341.1 314.2 L 347.6 313.5 L 354.1 312.9 L 360.6 312.2 L 367.0 311.5 L 373.5 310.8 L 380.0 310.0 L 386.5 309.2 L 393.0 308.4 L 399.4 307.5 L 405.9 306.5 L 412.4 305.5 L 418.9 304.5 L 425.4 303.3 L 431.8 302.1 L 438.3 300.8 L 444.8 299.4 L 451.3 297.9 L 457.8 296.2 L 464.2 294.4 L 470.7 292.5 L 477.2 290.4 L 483.7 288.1 L 490.2 285.6 L 496.6 282.9 L 503.1 279.9 L 509.6 276.7 L 516.1 273.2 L 522.6 269.3 L 529.0 265.1 L 535.5 260.5 L 542.0 255.4 L 548.5 249.9 L 555.0 243.9 L 561.4 237.3 L 567.9 230.1 L 574.4 222.1 L 580.9 213.5 L 587.4 204.0 L 593.8 193.5 L 600.3 182.1 L 606.8 169.6 L 613.3 155.9 L 619.8 140.9 L 626.2 124.4 L 632.7 106.4 L 639.2 86.6 L 645.7 65.0 L 652.2 41.2 L 658.6 15.1 L 665.1 -13.4 L 671.6 -44.7 L 678.1 -79.0 L 684.6 -116.7 L 691.0 -157.9 L 697.5 -203.2 L 704.0 -252.8" fill="none" stroke="#0F8EB1" stroke-width="2" clip-path="url(#plot)"/>
<path d="M 56.0 -252.8 L 62.5 -203.2 L 69.0 -157.9 L 75.4 -116.7 L 81.9 -79.0 L 88.4 -44.7 L 94.9 -13.4 L 101.4 15.1 L 107.8 41.2 L 114.3 65.0 L 120.8 86.6 L 127.3 106.4 L 133.8 124.4 L 140.2 140.9 L 146.7 155.9 L 153.2 169.6 L 159.7 182.1 L 166.2 193.5 L 172.6 204.0 L 179.1 213.5 L 185.6 222.1 L 192.1 230.1 L 198.6 237.3 L 205.0 243.9 L 211.5 249.9 L 218.0 255.4 L 224.5 260.5 L 231.0 265.1 L 237.4 269.3 L 243.9 273.2 L 250.4 276.7 L 256.9 279.9 L 263.4 282.9 L 269.8 285.6 L 276.3 288.1 L 282.8 290.4 L 289.3 292.5 L 295.8 294.4 L 302.2 296.2 L 308.7 297.9 L 315.2 299.4 L 321.7 300.8 L 328.2 302.1 L 334.6 303.3 L 341.1 304.5 L 347.6 305.5 L 354.1 306.5 L 360.6 307.5 L 367.0 308.4 L 373.5 309.2 L 380.0 310.0 L 386.5 310.8 L 393.0 311.5 L 399.4 312.2 L 405.9 312.9 L 412.4 313.5 L 418.9 314.2 L 425.4 314.8 L 431.8 315.4 L 438.3 316.1 L 444.8 316.7 L 451.3 317.3 L 457.8 317.9 L 464.2 318.5 L 470.7 319.2 L 477.2 319.8 L 483.7 320.5 L 490.2 321.1 L 496.6 321.8 L 503.1 322.5 L 509.6 323.3 L 516.1 324.0 L 522.6 324.8 L 529.0 325.6 L 535.5 326.4 L 542.0 327.3 L 548.5 328.1 L 555.0 329.1 L 561.4 330.0 L 567.9 331.0 L 574.4 332.1 L 580.9 333.2 L 587.4 334.3 L 593.8 335.5 L 600.3 336.7 L 606.8 338.0 L 613.3 339.4 L 619.8 340.8 L 626.2 342.2 L 632.7 343.8 L 639.2 345.4 L 645.7 347.1 L 652.2 348.9 L 658.6 350.7 L 665.1 352.6 L 671.6 354.7 L 678.1 356.8 L 684.6 359.0 L 691.0 361.3 L 697.5 363.7 L 704.0 366.3" fill="none" stroke="#CC6018" stroke-width="2" clip-path="url(#plot)"/>
<circle cx="380.0" cy="310.0" r="5" fill="#898781" stroke="#0d1117" stroke-width="2"/>
<text x="56.0" y="410.0" text-anchor="middle" font-family="system-ui, -apple-system, 'Segoe UI', sans-serif" font-size="12" fill="#898781">1</text>
<text x="380.0" y="410.0" text-anchor="middle" font-family="system-ui, -apple-system, 'Segoe UI', sans-serif" font-size="12" fill="#898781">10</text>
<text x="704.0" y="410.0" text-anchor="middle" font-family="system-ui, -apple-system, 'Segoe UI', sans-serif" font-size="12" fill="#898781">100</text>
<text x="591.6" y="79.0" text-anchor="end" font-family="system-ui, -apple-system, 'Segoe UI', sans-serif" font-size="13" fill="#c3c2b7">Ẋᵢᵅ (en Ṙ)</text>
<text x="179.2" y="79.0" text-anchor="start" font-family="system-ui, -apple-system, 'Segoe UI', sans-serif" font-size="13" fill="#c3c2b7">Ẋᵢᵝ (en Ṙ·[β/α]ᵢ)</text>
<text x="380.0" y="373.0" text-anchor="middle" font-family="system-ui, -apple-system, 'Segoe UI', sans-serif" font-size="13" fill="#c3c2b7">à l'estimation (10) : équilibre</text>
<line x1="524.9" y1="40.5" x2="542.9" y2="40.5" stroke="#0F8EB1" stroke-width="2"/>
<text x="548.9" y="44.5" font-family="system-ui, -apple-system, 'Segoe UI', sans-serif" font-size="12" fill="#c3c2b7">actif α</text>
<line x1="616.9" y1="40.5" x2="634.9" y2="40.5" stroke="#CC6018" stroke-width="2"/>
<text x="640.9" y="44.5" font-family="system-ui, -apple-system, 'Segoe UI', sans-serif" font-size="12" fill="#c3c2b7">actif β</text>
<text x="380.0" y="430.0" text-anchor="middle" font-family="system-ui, -apple-system, 'Segoe UI', sans-serif" font-size="12" fill="#c3c2b7">prix de marché [α/β]Ω (échelle log, en α par unité de β)</text>
</svg>
