<svg xmlns="http://www.w3.org/2000/svg" viewBox="0 0 720 400" width="720" height="400" role="img">
<text x="48.0" y="358.0" text-anchor="end" font-family="system-ui, -apple-system, 'Segoe UI', sans-serif" font-size="12" fill="#898781">0</text>
<line x1="56.0" y1="211.8" x2="704.0" y2="211.8" stroke="#2c2c2a" stroke-width="1"/>
<text x="48.0" y="215.8" text-anchor="end" font-family="system-ui, -apple-system, 'Segoe UI', sans-serif" font-size="12" fill="#898781">250</text>
<line x1="56.0" y1="69.5" x2="704.0" y2="69.5" stroke="#2c2c2a" stroke-width="1"/>
<text x="48.0" y="73.5" text-anchor="end" font-family="system-ui, -apple-system, 'Segoe UI', sans-serif" font-size="12" fill="#898781">500</text>
<line x1="56.0" y1="354.0" x2="704.0" y2="354.0" stroke="#383835" stroke-width="1"/>
<text x="56.0" y="372.0" text-anchor="middle" font-family="system-ui, -apple-system, 'Segoe UI', sans-serif" font-size="12" fill="#898781">0</text>
<text x="218.0" y="372.0" text-anchor="middle" font-family="system-ui, -apple-system, 'Segoe UI', sans-serif" font-size="12" fill="#898781">20</text>
<text x="380.0" y="372.0" text-anchor="middle" font-family="system-ui, -apple-system, 'Segoe UI', sans-serif" font-size="12" fill="#898781">40</text>
<text x="542.0" y="372.0" text-anchor="middle" font-family="system-ui, -apple-system, 'Segoe UI', sans-serif" font-size="12" fill="#898781">60</text>
<text x="704.0" y="372.0" text-anchor="middle" font-family="system-ui, -apple-system, 'Segoe UI', sans-serif" font-size="12" fill="#898781">80</text>
<text x="380.0" y="392.0" text-anchor="middle" font-family="system-ui, -apple-system, 'Segoe UI', sans-serif" font-size="12" fill="#c3c2b7">temps (années)</text>
<text x="16.0" y="16.0" text-anchor="start" font-family="system-ui, -apple-system, 'Segoe UI', sans-serif" font-size="12" fill="#c3c2b7">tôks</text>
<path d="M 56.0 354.0 L 96.5 354.0 L 96.5 69.5 L 96.5 69.5 L 100.6 71.5 L 104.6 73.4 L 108.7 75.4 L 112.7 77.3 L 116.8 79.2 L 120.8 81.1 L 124.8 83.0 L 128.9 84.9 L 132.9 86.7 L 137.0 88.6 L 141.1 90.4 L 145.1 92.2 L 149.1 94.0 L 153.2 95.8 L 157.2 97.6 L 161.3 99.4 L 165.4 101.1 L 169.4 102.9 L 173.4 104.6 L 177.5 106.3 L 181.6 108.1 L 185.6 109.8 L 189.7 111.4 L 193.7 113.1 L 197.8 114.8 L 201.8 116.4 L 205.8 118.1 L 209.9 119.7 L 213.9 121.3 L 218.0 122.9 L 222.0 124.5 L 226.1 126.1 L 230.2 127.7 L 234.2 129.2 L 238.2 130.8 L 242.3 132.3 L 246.3 133.9 L 250.4 135.4 L 254.5 136.9 L 258.5 138.4 L 262.5 139.9 L 266.6 141.4 L 270.6 142.8 L 274.7 144.3 L 278.8 145.7 L 282.8 147.2 L 286.9 148.6 L 290.9 150.0 L 295.0 151.4 L 299.0 152.8 L 303.0 154.2 L 307.1 155.6 L 311.1 157.0 L 315.2 158.3 L 319.2 159.7 L 323.3 161.0 L 327.4 162.4 L 331.4 163.7 L 335.4 165.0 L 339.5 166.3 L 343.6 167.6 L 347.6 168.9 L 351.6 170.2 L 355.7 171.4 L 359.8 172.7 L 363.8 174.0 L 367.9 175.2 L 371.9 176.4 L 375.9 177.7 L 380.0 178.9 L 384.1 180.1 L 388.1 181.3 L 392.2 182.5 L 396.2 183.7 L 400.2 184.8 L 404.3 186.0 L 408.3 187.2 L 412.4 188.3 L 416.4 189.5 L 420.5 190.6 L 424.6 191.7 L 428.6 192.9 L 432.7 194.0 L 436.7 195.1 L 440.8 196.2 L 444.8 197.3 L 448.8 198.3 L 452.9 199.4 L 456.9 200.5 L 461.0 201.5 L 465.1 202.6 L 469.1 203.6 L 473.2 204.7 L 477.2 205.7 L 481.2 206.7 L 485.3 207.8 L 489.3 208.8 L 493.4 209.8 L 497.4 210.8 L 501.5 211.8 L 505.6 212.7 L 509.6 213.7 L 513.7 214.7 L 517.7 215.6 L 521.8 216.6 L 525.8 217.6 L 529.8 218.5 L 533.9 219.4 L 538.0 220.4 L 542.0 221.3 L 546.0 222.2 L 550.1 223.1 L 554.2 224.0 L 558.2 224.9 L 562.2 225.8 L 566.3 226.7 L 570.4 227.6 L 574.4 228.4 L 578.5 229.3 L 582.5 230.2 L 586.5 231.0 L 590.6 231.9 L 594.6 232.7 L 598.7 233.6 L 602.8 234.4 L 606.8 235.2 L 610.9 236.0 L 614.9 236.9 L 619.0 237.7 L 623.0 238.5 L 627.0 239.3 L 631.1 240.1 L 635.1 240.8 L 639.2 241.6 L 643.2 242.4 L 647.3 243.2 L 651.4 243.9 L 655.4 244.7 L 659.5 245.5 L 663.5 246.2 L 667.5 246.9 L 671.6 247.7 L 675.6 248.4 L 679.7 249.1 L 683.8 249.9 L 687.8 250.6 L 691.9 251.3 L 695.9 252.0 L 700.0 252.7 L 704.0 253.4 L 704.0 253.4" fill="none" stroke="#3987e5" stroke-width="2"/>
<path d="M 56.0 354.0 L 96.5 354.0 L 96.5 354.0 L 100.6 346.9 L 104.6 339.9 L 108.7 332.9 L 112.7 325.9 L 116.8 319.0 L 120.8 312.2 L 124.8 305.4 L 128.9 298.7 L 132.9 291.9 L 137.0 285.3 L 141.1 278.7 L 145.1 272.1 L 149.1 265.6 L 153.2 259.1 L 157.2 252.7 L 161.3 246.3 L 165.4 239.9 L 169.4 233.6 L 173.4 227.4 L 177.5 221.2 L 181.6 215.0 L 185.6 208.9 L 189.7 202.8 L 193.7 196.8 L 197.8 190.8 L 201.8 184.8 L 205.8 178.9 L 209.9 173.0 L 213.9 167.2 L 218.0 161.4 L 222.0 155.6 L 226.1 149.9 L 230.2 144.2 L 234.2 138.6 L 238.2 133.0 L 242.3 127.4 L 246.3 121.9 L 250.4 116.4 L 254.5 111.0 L 258.5 105.5 L 258.5 105.5 L 258.5 105.5 L 262.5 107.3 L 266.6 109.0 L 270.6 110.7 L 274.7 112.3 L 278.8 114.0 L 282.8 115.7 L 286.9 117.3 L 290.9 119.0 L 295.0 120.6 L 299.0 122.2 L 303.0 123.8 L 307.1 125.4 L 311.1 127.0 L 315.2 128.5 L 319.2 130.1 L 323.3 131.6 L 327.4 133.2 L 331.4 134.7 L 335.4 136.2 L 339.5 137.7 L 343.6 139.2 L 347.6 140.7 L 351.6 142.2 L 355.7 143.6 L 359.8 145.1 L 363.8 146.5 L 367.9 148.0 L 371.9 149.4 L 375.9 150.8 L 380.0 152.2 L 384.1 153.6 L 388.1 155.0 L 392.2 156.3 L 396.2 157.7 L 400.2 159.1 L 404.3 160.4 L 408.3 161.8 L 412.4 163.1 L 416.4 164.4 L 420.5 165.7 L 424.6 167.0 L 428.6 168.3 L 432.7 169.6 L 436.7 170.9 L 440.8 172.1 L 444.8 173.4 L 448.8 174.6 L 452.9 175.9 L 456.9 177.1 L 461.0 178.3 L 465.1 179.5 L 469.1 180.7 L 473.2 181.9 L 477.2 183.1 L 481.2 184.3 L 485.3 185.5 L 489.3 186.6 L 493.4 187.8 L 497.4 188.9 L 501.5 190.1 L 505.6 191.2 L 509.6 192.3 L 513.7 193.5 L 517.7 194.6 L 521.8 195.7 L 525.8 196.8 L 529.8 197.8 L 533.9 198.9 L 538.0 200.0 L 542.0 201.1 L 546.0 202.1 L 550.1 203.2 L 554.2 204.2 L 558.2 205.2 L 562.2 206.3 L 566.3 207.3 L 570.4 208.3 L 574.4 209.3 L 578.5 210.3 L 582.5 211.3 L 586.5 212.3 L 590.6 213.3 L 594.6 214.2 L 598.7 215.2 L 602.8 216.2 L 606.8 217.1 L 610.9 218.1 L 614.9 219.0 L 619.0 219.9 L 623.0 220.9 L 627.0 221.8 L 631.1 222.7 L 635.1 223.6 L 639.2 224.5 L 643.2 225.4 L 647.3 226.3 L 651.4 227.2 L 655.4 228.0 L 659.5 228.9 L 663.5 229.8 L 667.5 230.6 L 671.6 231.5 L 675.6 232.3 L 679.7 233.2 L 683.8 234.0 L 687.8 234.8 L 691.9 235.7 L 695.9 236.5 L 700.0 237.3 L 704.0 238.1 L 704.0 238.1" fill="none" stroke="#008300" stroke-width="2"/>
<text x="112.7" y="58.1" text-anchor="start" font-family="system-ui, -apple-system, 'Segoe UI', sans-serif" font-size="13" fill="#c3c2b7">transfert — 500 tôks d’un coup</text>
<text x="266.6" y="89.4" text-anchor="start" font-family="system-ui, -apple-system, 'Segoe UI', sans-serif" font-size="13" fill="#c3c2b7">flot — 500 tôks sur 20 ans</text>
<line x1="501.5" y1="354.0" x2="501.5" y2="211.8" stroke="#898781" stroke-width="1" stroke-dasharray="2 3"/>
<circle cx="501.5" cy="211.8" r="5" fill="#3987e5" stroke="#0d1117" stroke-width="2"/>
<text x="511.5" y="177.8" text-anchor="start" font-family="system-ui, -apple-system, 'Segoe UI', sans-serif" font-size="13" fill="#c3c2b7">50 ans plus tard : ÷ 2</text>
<line x1="477.2" y1="38.2" x2="495.2" y2="38.2" stroke="#3987e5" stroke-width="2"/>
<text x="501.2" y="42.2" font-family="system-ui, -apple-system, 'Segoe UI', sans-serif" font-size="12" fill="#c3c2b7">transfert</text>
<line x1="573.2" y1="38.2" x2="591.2" y2="38.2" stroke="#008300" stroke-width="2"/>
<text x="597.2" y="42.2" font-family="system-ui, -apple-system, 'Segoe UI', sans-serif" font-size="12" fill="#c3c2b7">flot</text>
</svg>
