<svg xmlns="http://www.w3.org/2000/svg" viewBox="0 0 720 400" width="720" height="400" role="img">
<text x="48.0" y="358.0" text-anchor="end" font-family="system-ui, -apple-system, 'Segoe UI', sans-serif" font-size="12" fill="#898781">0</text>
<line x1="56.0" y1="269.4" x2="704.0" y2="269.4" stroke="#2c2c2a" stroke-width="1"/>
<text x="48.0" y="273.4" text-anchor="end" font-family="system-ui, -apple-system, 'Segoe UI', sans-serif" font-size="12" fill="#898781">500</text>
<line x1="56.0" y1="184.8" x2="704.0" y2="184.8" stroke="#2c2c2a" stroke-width="1"/>
<text x="48.0" y="188.8" text-anchor="end" font-family="system-ui, -apple-system, 'Segoe UI', sans-serif" font-size="12" fill="#898781">1000</text>
<line x1="56.0" y1="100.2" x2="704.0" y2="100.2" stroke="#2c2c2a" stroke-width="1"/>
<text x="48.0" y="104.2" text-anchor="end" font-family="system-ui, -apple-system, 'Segoe UI', sans-serif" font-size="12" fill="#898781">1500</text>
<line x1="56.0" y1="354.0" x2="704.0" y2="354.0" stroke="#383835" stroke-width="1"/>
<text x="56.0" y="372.0" text-anchor="middle" font-family="system-ui, -apple-system, 'Segoe UI', sans-serif" font-size="12" fill="#898781">0</text>
<text x="218.0" y="372.0" text-anchor="middle" font-family="system-ui, -apple-system, 'Segoe UI', sans-serif" font-size="12" fill="#898781">25</text>
<text x="380.0" y="372.0" text-anchor="middle" font-family="system-ui, -apple-system, 'Segoe UI', sans-serif" font-size="12" fill="#898781">50</text>
<text x="542.0" y="372.0" text-anchor="middle" font-family="system-ui, -apple-system, 'Segoe UI', sans-serif" font-size="12" fill="#898781">75</text>
<text x="704.0" y="372.0" text-anchor="middle" font-family="system-ui, -apple-system, 'Segoe UI', sans-serif" font-size="12" fill="#898781">100</text>
<text x="380.0" y="392.0" text-anchor="middle" font-family="system-ui, -apple-system, 'Segoe UI', sans-serif" font-size="12" fill="#c3c2b7">âge (années)</text>
<text x="16.0" y="16.0" text-anchor="start" font-family="system-ui, -apple-system, 'Segoe UI', sans-serif" font-size="12" fill="#c3c2b7">tôks</text>
<line x1="56.0" y1="56.8" x2="704.0" y2="56.8" stroke="#898781" stroke-width="1.5" stroke-dasharray="5 4"/>
<text x="704.0" y="48.8" text-anchor="end" font-family="system-ui, -apple-system, 'Segoe UI', sans-serif" font-size="13" fill="#c3c2b7">plafond : Λ̇/k_D ≈ 1756 tôks</text>
<path d="M 56.0 354.0 L 59.2 351.9 L 62.5 349.9 L 65.7 347.9 L 69.0 345.9 L 72.2 343.9 L 75.4 341.9 L 78.7 339.9 L 81.9 338.0 L 85.2 336.0 L 88.4 334.1 L 91.6 332.2 L 94.9 330.3 L 98.1 328.4 L 101.4 326.5 L 104.6 324.6 L 107.8 322.8 L 111.1 321.0 L 114.3 319.1 L 117.6 317.3 L 120.8 315.5 L 124.0 313.7 L 127.3 312.0 L 130.5 310.2 L 133.8 308.4 L 137.0 306.7 L 140.2 305.0 L 143.5 303.3 L 146.7 301.6 L 150.0 299.9 L 153.2 298.2 L 156.4 296.5 L 159.7 294.9 L 162.9 293.2 L 166.2 291.6 L 169.4 290.0 L 172.6 288.4 L 175.9 286.8 L 179.1 285.2 L 182.4 283.6 L 185.6 282.0 L 188.8 280.5 L 192.1 278.9 L 195.3 277.4 L 198.6 275.9 L 201.8 274.4 L 205.0 272.8 L 208.3 271.4 L 211.5 269.9 L 214.8 268.4 L 218.0 266.9 L 221.2 265.5 L 224.5 264.0 L 227.7 262.6 L 231.0 261.2 L 234.2 259.8 L 237.4 258.4 L 240.7 257.0 L 243.9 255.6 L 247.2 254.2 L 250.4 252.9 L 253.6 251.5 L 256.9 250.2 L 260.1 248.8 L 263.4 247.5 L 266.6 246.2 L 269.8 244.9 L 273.1 243.6 L 276.3 242.3 L 279.6 241.0 L 282.8 239.7 L 286.0 238.5 L 289.3 237.2 L 292.5 236.0 L 295.8 234.7 L 299.0 233.5 L 302.2 232.3 L 305.5 231.1 L 308.7 229.9 L 312.0 228.7 L 315.2 227.5 L 318.4 226.3 L 321.7 225.1 L 324.9 224.0 L 328.2 222.8 L 331.4 221.7 L 334.6 220.5 L 337.9 219.4 L 341.1 218.3 L 344.4 217.2 L 347.6 216.0 L 350.8 214.9 L 354.1 213.9 L 357.3 212.8 L 360.6 211.7 L 363.8 210.6 L 367.0 209.6 L 370.3 208.5 L 373.5 207.5 L 376.8 206.4 L 380.0 205.4 L 383.2 204.4 L 386.5 203.3 L 389.7 202.3 L 393.0 201.3 L 396.2 200.3 L 399.4 199.3 L 402.7 198.3 L 405.9 197.4 L 409.2 196.4 L 412.4 195.4 L 415.6 194.5 L 418.9 193.5 L 422.1 192.6 L 425.4 191.6 L 428.6 190.7 L 431.8 189.8 L 435.1 188.9 L 438.3 187.9 L 441.6 187.0 L 444.8 186.1 L 448.0 185.2 L 451.3 184.4 L 454.5 183.5 L 457.8 182.6 L 461.0 181.7 L 464.2 180.9 L 467.5 180.0 L 470.7 179.2 L 474.0 178.3 L 477.2 177.5 L 480.4 176.6 L 483.7 175.8 L 486.9 175.0 L 490.2 174.2 L 493.4 173.4 L 496.6 172.6 L 499.9 171.8 L 503.1 171.0 L 506.4 170.2 L 509.6 169.4 L 512.8 168.6 L 516.1 167.8 L 519.3 167.1 L 522.6 166.3 L 525.8 165.6 L 529.0 164.8 L 532.3 164.1 L 535.5 163.3 L 538.8 162.6 L 542.0 161.8 L 545.2 161.1 L 548.5 160.4 L 551.7 159.7 L 555.0 159.0 L 558.2 158.3 L 561.4 157.6 L 564.7 156.9 L 567.9 156.2 L 571.2 155.5 L 574.4 154.8 L 577.6 154.1 L 580.9 153.5 L 584.1 152.8 L 587.4 152.1 L 590.6 151.5 L 593.8 150.8 L 597.1 150.2 L 600.3 149.5 L 603.6 148.9 L 606.8 148.2 L 610.0 147.6 L 613.3 147.0 L 616.5 146.4 L 619.8 145.7 L 623.0 145.1 L 626.2 144.5 L 629.5 143.9 L 632.7 143.3 L 636.0 142.7 L 639.2 142.1 L 642.4 141.5 L 645.7 140.9 L 648.9 140.4 L 652.2 139.8 L 655.4 139.2 L 658.6 138.6 L 661.9 138.1 L 665.1 137.5 L 668.4 137.0 L 671.6 136.4 L 674.8 135.9 L 678.1 135.3 L 681.3 134.8 L 684.6 134.2 L 687.8 133.7 L 691.0 133.2 L 694.3 132.6 L 697.5 132.1 L 700.8 131.6 L 704.0 131.1 L 704.0 131.1" fill="none" stroke="#3987e5" stroke-width="2"/>
<line x1="380.0" y1="354.0" x2="380.0" y2="205.4" stroke="#898781" stroke-width="1" stroke-dasharray="2 3"/>
<line x1="56.0" y1="205.4" x2="380.0" y2="205.4" stroke="#898781" stroke-width="1" stroke-dasharray="2 3"/>
<circle cx="380.0" cy="205.4" r="5" fill="#3987e5" stroke="#0d1117" stroke-width="2"/>
<text x="367.0" y="191.4" text-anchor="end" font-family="system-ui, -apple-system, 'Segoe UI', sans-serif" font-size="13" fill="#c3c2b7">à 50 ans : la moitié (≈ 878 tôks)</text>
</svg>
